<?xml version="1.0" encoding="UTF-8"?>
<svg xmlns="http://www.w3.org/2000/svg" xmlns:xlink="http://www.w3.org/1999/xlink" width="32px" height="32px" viewBox="0 0 32 32" version="1.1">
<g id="surface1">
<path style="fill:none;stroke-width:2;stroke-linecap:round;stroke-linejoin:round;stroke:rgb(100%,100%,100%);stroke-opacity:1;stroke-miterlimit:4;" d="M 20 12 C 20 13.101562 19.601562 14.101562 18.800781 14.800781 C 18.101562 15.601562 17.101562 16 16 16 C 14.898438 16 13.898438 15.601562 13.199219 14.800781 C 12.398438 14.101562 12 13.101562 12 12 M 7.601562 11.398438 L 6.898438 19.800781 C 6.699219 21.601562 6.699219 22.5 7 23.199219 C 7.300781 23.800781 7.699219 24.300781 8.300781 24.601562 C 9 25 9.898438 25 11.699219 25 L 20.300781 25 C 22.101562 25 23 25 23.699219 24.601562 C 24.300781 24.300781 24.800781 23.800781 25 23.199219 C 25.300781 22.5 25.199219 21.601562 25.101562 19.800781 L 24.398438 11.398438 C 24.300781 9.800781 24.199219 9.101562 23.898438 8.5 C 23.601562 8 23.101562 7.601562 22.601562 7.300781 C 21.898438 7 21.101562 7 19.601562 7 L 12.398438 7 C 10.800781 7 10.101562 7 9.398438 7.300781 C 8.898438 7.601562 8.5 8 8.199219 8.5 C 7.800781 9.101562 7.800781 9.800781 7.601562 11.398438 Z M 7.601562 11.398438 "/>
</g>
</svg>
